<svg width="400" height="100" viewBox="0 0 400 100" fill="none" xmlns="http://www.w3.org/2000/svg">
<path d="M300 50C300 56.5661 301.293 63.0679 303.806 69.1342C306.319 75.2004 310.002 80.7124 314.645 85.3553C319.288 89.9983 324.8 93.6812 330.866 96.194C336.932 98.7067 343.434 100 350 100C356.566 100 363.068 98.7067 369.134 96.194C375.2 93.6812 380.712 89.9983 385.355 85.3553C389.998 80.7124 393.681 75.2004 396.194 69.1342C398.707 63.0679 400 56.5661 400 50L350 50L300 50Z" fill="white"/>
<path d="M100 50C100 36.7392 94.7322 24.0215 85.3553 14.6447C75.9785 5.26784 63.2608 1.00116e-06 50 0C36.7392 -1.00116e-06 24.0215 5.26784 14.6447 14.6447C5.26785 24.0215 2.00233e-06 36.7392 0 50L50 50H100Z" fill="#00FF86"/>
<path d="M100 50C100 63.2608 105.268 75.9785 114.645 85.3553C124.021 94.7322 136.739 100 150 100C163.261 100 175.979 94.7322 185.355 85.3553C194.732 75.9785 200 63.2608 200 50L150 50L100 50Z" fill="#00D8FF"/>
<path d="M300 50C300 36.7392 294.732 24.0215 285.355 14.6447C275.979 5.26784 263.261 1.00116e-06 250 0C236.739 -1.00116e-06 224.021 5.26784 214.645 14.6447C205.268 24.0215 200 36.7392 200 50L250 50H300Z" fill="#0081FF"/>
</svg>
