<svg width="32" height="32" viewBox="0 0 32 32" fill="none" xmlns="http://www.w3.org/2000/svg">
<path d="M16 16C16 18.1217 16.8429 20.1566 18.3431 21.6569C19.8434 23.1571 21.8783 24 24 24C26.1217 24 28.1566 23.1571 29.6569 21.6569C31.1571 20.1566 32 18.1217 32 16L24 16L16 16Z" fill="#00D8FF"/>
<path d="M16 16C16 13.8783 15.1571 11.8434 13.6569 10.3431C12.1566 8.84285 10.1217 8 8 8C5.87827 8 3.84344 8.84285 2.34315 10.3431C0.842855 11.8434 3.20373e-07 13.8783 0 16L8 16H16Z" fill="#00FF86"/>
<path d="M16 16C17.0506 16 18.0909 15.7931 19.0615 15.391C20.0321 14.989 20.914 14.3997 21.6569 13.6569C22.3997 12.914 22.989 12.0321 23.391 11.0615C23.7931 10.0909 24 9.05057 24 8C24 6.94942 23.7931 5.90914 23.391 4.93853C22.989 3.96793 22.3997 3.08601 21.6569 2.34314C20.914 1.60028 20.0321 1.011 19.0615 0.608963C18.0909 0.206926 17.0506 -3.95613e-07 16 -3.49691e-07L16 8L16 16Z" fill="white"/>
<path d="M16 16C13.8783 16 11.8435 16.8429 10.3432 18.3431C8.84288 19.8434 8.00003 21.8783 8.00003 24C8.00003 26.1217 8.84288 28.1566 10.3432 29.6569C11.8435 31.1571 13.8783 32 16 32L16 24L16 16Z" fill="#0081FF"/>
</svg>
