<svg width="200" height="200" viewBox="0 0 200 200" fill="none" xmlns="http://www.w3.org/2000/svg">
<path d="M100 100C100 113.261 105.268 125.979 114.645 135.355C124.021 144.732 136.739 150 150 150C163.261 150 175.979 144.732 185.355 135.355C194.732 125.979 200 113.261 200 100L150 100L100 100Z" fill="#00D8FF"/>
<path d="M100 100C100 86.7392 94.7322 74.0215 85.3553 64.6447C75.9785 55.2678 63.2608 50 50 50C36.7392 50 24.0215 55.2678 14.6447 64.6447C5.26785 74.0215 2.00233e-06 86.7392 0 100L50 100H100Z" fill="#00FF86"/>
<path d="M100 100C106.566 100 113.068 98.7067 119.134 96.194C125.2 93.6812 130.712 89.9983 135.355 85.3553C139.998 80.7124 143.681 75.2004 146.194 69.1342C148.707 63.0679 150 56.5661 150 50C150 43.4339 148.707 36.9321 146.194 30.8658C143.681 24.7995 139.998 19.2876 135.355 14.6447C130.712 10.0017 125.2 6.31876 119.134 3.80602C113.068 1.29329 106.566 -2.47258e-06 100 -2.18557e-06L100 50L100 100Z" fill="white"/>
<path d="M100 100C86.7392 100 74.0215 105.268 64.6447 114.645C55.2679 124.021 50 136.739 50 150C50 163.261 55.2679 175.979 64.6447 185.355C74.0215 194.732 86.7392 200 100 200L100 150L100 100Z" fill="#0081FF"/>
</svg>
